<svg width="100" height="110" viewBox="0 0 100 110" fill="none" xmlns="http://www.w3.org/2000/svg">
<path d="M97.75 0L98.25 0.25V7L97.5 10.75L95.75 15.5L94.25 18.25L91.75 21.75L90 23.5L88.25 25.5L85.25 27.75L80 30.5L76.25 31.75L71 33L64.75 34.25L61.5 35.5L58.5 37.25L55.5 40.25L53.5 43.75L52 47.25L51.5 51.5V58.75H70.75L71.25 59.25L71.75 65L71.25 65.25H51.25V109.25L45.5 109.5L45.25 109.25V49.5L45.75 46L47 42L48.75 38.5L51.5 35L54.5 32.25L57.75 30.25L61.5 28.5L66.75 27.25L73 26L77 24.75L81.75 22.25L84.25 20.25L86.75 17.75L88.75 14.5L91.25 8.75L93 4.75L95.25 2.25L97.25 0.25L97.75 0Z" fill="black"/>
<path d="M35.25 13L36 13.25L36.25 18.75L35.5 19.5L31 21.5L26.5 24L22.25 27L19.5 29.25L17.75 31.25H17.25L16.75 32.25L14 35.5L10.5 41.5L8.5 46.75L7 52L6.5 56V63.25L7.25 68.5L9.25 75L12 80.75L14.25 84.25L16.75 87.5L18.25 89.25L19 89.75V90.25L20 90.75L22.75 93.25L25.5 95.25L28.5 97.5L28.25 98.75L26.25 102.75L25.25 103L21.25 100.5L17.25 97.25L14.75 95L12.25 92.5L10 89.75L7.5 86.25L5.5 82.75L3.5 78.5L1.75 73.75L0.5 68.25L0 64V56L0.75 49.75L2 45L4.5 38.75L6.75 34.5L9.75 30.25L12.75 26.75L15.5 24L19 21.25L21.75 19.25L25.75 16.75L31.25 14.25L35.25 13Z" fill="black"/>
<path d="M95.25 41.25L96 41.5L98.25 47.25L99.25 51.75L99.75 56V64L99 69.25L97.75 74L95.25 80.5L92.75 85L90 89L87.75 91.75L86.75 93H86.25L86 93.75L85.25 94.5H84.75V95L82 97.25L80 99L74.5 102.5L68.75 105.25L64.25 106.75L61.5 107.5L60.5 107.25V103L61 101.25L63.25 100.25L68.25 98.25L73.5 95.5L78.25 92L82.25 88.25L82.5 87.75H83L83.5 86.75L85.75 83.75L87.5 81L89.5 77L91.25 73L92.75 67L93.25 62.75V57L92.5 51.25L91 45.75L90 43.75L90.25 43.25L94 42L95.25 41.25Z" fill="black"/>
<path d="M46.25 11H53.75L57.25 11.5L60 12.5L60.5 13.75L60.25 16.5L59.75 17.75L59.25 18.25L57.25 18L53.75 17.5L44.25 17.25L44.5 15.25L46 11.25L46.25 11Z" fill="black"/>
<path d="M28.5 47.75L30 48L33.5 49.75L36.25 52.25L37.5 55L38 56.75L38.25 59.75V61.75L36.5 61.5L34 60.25L31 57.75L29.25 54.75L28.5 52L28.25 48.25L28.5 47.75Z" fill="black"/>
<path d="M81 5H82L81.75 10L80.75 13.25L78.75 16L76.5 18L73.25 20H72.75V14L74 10.75L75.75 8.5L78.25 6.5L81 5Z" fill="black"/>
</svg>
