<svg xmlns="http://www.w3.org/2000/svg" viewBox="232 728 1564 516" version="1.1" style="max-height: 500px" width="1564" height="516">
<path fill="#FEFEFE" d="m0 0 2 1v27l-3 15-7 19-6 11-10 14-7 7-7 8-12 9-21 11-15 5-21 5-25 5-13 5-12 7-12 12-8 14-6 14-2 17v29h77l2 2 2 23-2 1h-80v176l-23 1-1-1v-239l2-14 5-16 7-14 11-14 12-11 13-8 15-7 21-5 25-5 16-5 19-10 10-8 10-10 8-13 10-23 7-16 9-10 8-8z" transform="translate(655,760)"/>
<path fill="#67EF45" d="m0 0 3 1 1 22-3 3-18 8-18 10-17 12-11 9-7 8h-2l-2 4-11 13-14 24-8 21-6 21-2 16v29l3 21 8 26 11 23 9 14 10 13 6 7 3 2v2l4 2 11 10 11 8 12 9-1 5-8 16-4 1-16-10-16-13-10-9-10-10-9-11-10-14-8-14-8-17-7-19-5-22-2-17v-32l3-25 5-19 10-25 9-17 12-17 12-14 11-11 14-11 11-8 16-10 22-10z" transform="translate(405,812)"/>
<path fill="#67EF45" d="m0 0 3 1 9 23 4 18 2 17v32l-3 21-5 19-10 26-10 18-11 16-9 11-4 5h-2l-1 3-3 3h-2v2l-11 9-8 7-22 14-23 11-18 6-11 3-4-1v-17l2-7 9-4 20-8 21-11 19-14 16-15 1-2h2l2-4 9-12 7-11 8-16 7-16 6-24 2-17v-23l-3-23-6-22-4-8 1-2 15-5z" transform="translate(645,925)"/>
<path fill="#FEFEFE" d="m0 0 13 1 10 4 10 9 4 6 6-9 8-6 9-4h22l9 3 10 8 6 9 3 9 1 67-1 1h-16l-1-63-3-9-5-6-7-4-5-1h-11l-10 4-6 7-4 8-1 9-1 55h-16l-1-63-4-10-7-7-10-3h-10l-8 3-6 5-6 11-1 5-1 59h-16v-96h16l1 12 10-9 9-4z" transform="translate(969,981)"/>
<path fill="#FEFEFE" d="m0 0h17l1 47 9-8 11-6 10-2h9l14 3 11 7 7 7 8 16 2 7v19l-4 13-4 8-9 10-8 6-9 3-8 1h-11l-10-2-11-6-7-7-2-1 1 3v12h-17zm41 46-8 3-9 8-5 8-2 8v17l3 9 6 8 8 7 9 3h13l11-4 8-7 5-10 1-4v-23l-4-9-7-8-8-5-4-1z" transform="translate(1666,949)"/>
<path fill="#FEFEFE" d="m0 0h17l1 1 1 44 9-8 10-4h22l9 3 8 6 7 10 4 11 1 7v59l-1 1h-16l-1-1-1-62-3-9-6-7-6-3-6-1h-9l-9 3-7 6-4 7-1 5-1 62h-17l-1-1z" transform="translate(1414,949)"/>
<path fill="#FEFEFE" d="m0 0 15 1 11 4 10 9 2 4h2v-15h15l1 5-1 91h-14l-1-1v-15l-8 7-8 6-8 3-7 1h-11l-11-2-10-5-10-10-8-16-2-10v-15l3-12 6-11 7-8 9-6 11-4zm-2 15-9 4-6 5-6 10-3 9v14l5 14 6 8 8 5 7 2h14l10-4 9-8 4-8 3-12v-8l-3-12-6-10h-2v-2l-10-6-4-1z" transform="translate(749,980)"/>
<path fill="#67EF45" d="m0 0h18l12 3 12 8 7 9 5 11 2 11v12l-1 1h-78l3 13 7 9 9 6 10 2 12-1 9-4 5-5 4-7h17l-1 6-4 7-8 9-10 6-13 3h-17l-12-3-10-6-8-9-7-14-2-8v-21l5-14 7-10 8-7 9-5zm4 13-10 3-8 6-6 9-3 7v4h63l-2-9-6-10-7-6-7-3-6-1z" transform="translate(1228,981)"/>
<path fill="#FEFEFE" d="m0 0h15l1 1v49l2 15 5 10 5 4 7 3h17l10-5 6-9 2-6 1-8 1-54h15v96h-15v-13l-8 7-8 5-12 2-17-1-10-4-6-5-7-10-3-8-1-7z" transform="translate(1539,983)"/>
<path fill="#67EF45" d="m0 0 18 1 6 8 13 21 2 6h3l2-5 12-19 6-10 1-1 16-1-1 4-25 40-3 4 2 5 7 10 11 18 9 14v2l-4 1-13-1-8-11-12-19-2-3h-2l-8 13-12 19-1 1-16 1 1-4 10-16 11-17 7-10-2-5-10-16-12-19-6-9z" transform="translate(1306,982)"/>
<path fill="#67EF45" d="m0 0h15l1 1v23l25 1v13h-25v58l2 9 10 2h11l2 1v13h-23l-9-3-7-6-2-8-1-19v-47h-11l-1-1v-12h12v-24z" transform="translate(1122,958)"/>
<path fill="#FEFEFE" d="m0 0h9l1 1v13l-1 1-16 3-6 4-5 6-2 5-2 64h-17v-96h17l1 5v7l11-10 4-2z" transform="translate(883,982)"/>
<path fill="#FEFEFE" d="m0 0h30l14 2 11 4 2 5-1 11-2 5-2 2-8-1-14-2-38-1 1-8 6-16z" transform="translate(449,804)"/>
<path fill="#67EF45" d="m0 0 6 1 14 7 11 10 5 11 2 7 1 12v8l-7-1-10-5-12-10-7-12-3-11-1-15z" transform="translate(378,951)"/>
<path fill="#67EF45" d="m0 0h4l-1 20-4 13-8 11-9 8-13 8h-2v-24l5-13 7-9 10-8z" transform="translate(588,780)"/>
</svg>